# xmcd CD database file
#
# Track frame offsets:
#	150
#	15887
#	35470
#	54507
#	70100
#	90395
#	108835
#	124042
#	139805
#	157127
#	169955
#	187267
#	202675
#	225577
#	242812
#	266435
#	283052
#	311227
#	328037
#
# Disc length: 4543 seconds
#
# Revision: 5
# Processed by: cddbd v1.5.2PL0 Copyright (c) Steve Scherf et al.
# Submitted via: CDex 1.51
#
DISCID=0811bd13
DTITLE=Hanna Banaszak - W moim magicznym domu
DYEAR=1998
DGENRE=Blues
TTITLE0=W moim magicznym domu
TTITLE1=Jesienny Pan
TTITLE2=Miasto samotnych serc
TTITLE3=Ostatni kadr
TTITLE4=Szeptem
TTITLE5=Ja dla Pana czasu nie mam
TTITLE6=Panienka z temperamentem
TTITLE7=Mam ochote na chwileczke zapomnienia
TTITLE8=Apetyt na zycie
TTITLE9=Jak Pan mogl
TTITLE10=Tak bym chciala kochac juz
TTITLE11=Pogoda ducha
TTITLE12=Samba bez butow
TTITLE13=Zegnaj kotku
TTITLE14=Pejzarz bez ciebie
TTITLE15=Samba na jedna nute
TTITLE16=Samba przed rozstaniem
TTITLE17=Kiedy ksiezyc jest w nowiu
TTITLE18=Lagodnie plyne w Twych ramionach
EXTD=YEAR: 1998
EXTT0=
EXTT1=
EXTT2=
EXTT3=
EXTT4=
EXTT5=
EXTT6=
EXTT7=
EXTT8=
EXTT9=
EXTT10=
EXTT11=
EXTT12=
EXTT13=
EXTT14=
EXTT15=
EXTT16=
EXTT17=
EXTT18=
PLAYORDER=
